<svg id="グループ_117" data-name="グループ 117" xmlns="http://www.w3.org/2000/svg" width="237.939" height="20" viewBox="0 0 237.939 20">
  <g id="グループ_123" data-name="グループ 123">
    <g id="グループ_121" data-name="グループ 121">
      <path id="パス_204" data-name="パス 204" d="M14.829,7.383H8.21a.054.054,0,0,0-.056.056V9.96a.054.054,0,0,0,.056.056h3.6A3.868,3.868,0,0,1,10.533,12.3a4.029,4.029,0,0,1-2.7.9,4.482,4.482,0,0,1-3-1.138C3.962,11.3,3.524,10,3.524,8.17a6.043,6.043,0,0,1,1.217-4.1A4.015,4.015,0,0,1,7.852,2.721a4.641,4.641,0,0,1,1.8.334,2.945,2.945,0,0,1,1.806,2.116.068.068,0,0,0,.056.048h3.27a.057.057,0,0,0,.064-.056.029.029,0,0,0-.008-.024A5.425,5.425,0,0,0,12.713,1.48,7.686,7.686,0,0,0,7.8,0,7.519,7.519,0,0,0,2.14,2.228,8.238,8.238,0,0,0,0,8.146,7.806,7.806,0,0,0,2.116,13.9,6.976,6.976,0,0,0,7.335,15.99a6.446,6.446,0,0,0,3.262-.772,7.139,7.139,0,0,0,1.655-1.432l.31,1.766a.058.058,0,0,0,.056.048h2.2a.054.054,0,0,0,.056-.056v-8.1A.043.043,0,0,0,14.829,7.383Z"/>
      <path id="パス_205" data-name="パス 205" d="M27.7,5.116c-.135,0-.358-.016-.414-.016a3.562,3.562,0,0,0-2.275.7,5.918,5.918,0,0,0-1.146,1.368V5.426a.054.054,0,0,0-.056-.056H20.876a.054.054,0,0,0-.056.056V16.588a.054.054,0,0,0,.056.056H23.97a.054.054,0,0,0,.056-.056V11.25a4.229,4.229,0,0,1,.35-1.957A2.549,2.549,0,0,1,26.81,8.179c.1,0,.215,0,.366.008s.326.024.517.04a.058.058,0,0,0,.048-.016c.016-.008.016-.024.016-.048V5.18A.067.067,0,0,0,27.7,5.116Z" transform="translate(-4.257 -1.043)"/>
      <path id="パス_206" data-name="パス 206" d="M40.86,16.112a1.084,1.084,0,0,1-.43-.318,1.513,1.513,0,0,1-.175-.748c-.016-.5-.024-.939-.024-1.289V8.642a2.833,2.833,0,0,0-1.535-2.8,7.934,7.934,0,0,0-3.469-.732c-2,0-3.421.5-4.248,1.5A4.269,4.269,0,0,0,30.1,9.048a.113.113,0,0,0,.016.048c.008.016.024.016.04.016h2.975a.053.053,0,0,0,.056-.048,2.042,2.042,0,0,1,.422-.994,1.979,1.979,0,0,1,1.519-.493,3.332,3.332,0,0,1,1.464.255.908.908,0,0,1,.477.891.824.824,0,0,1-.628.772,5.01,5.01,0,0,1-1.209.255l-1.05.119a7.988,7.988,0,0,0-2.737.724,3.21,3.21,0,0,0-1.71,3.031,3.073,3.073,0,0,0,1.066,2.5A4.107,4.107,0,0,0,33.485,17a4.7,4.7,0,0,0,2.283-.549,6.715,6.715,0,0,0,1.4-1.034c.024.207.048.39.072.557a3.286,3.286,0,0,0,.2.644.06.06,0,0,0,.056.04h3.341a.054.054,0,0,0,.056-.056v-.43A.045.045,0,0,0,40.86,16.112Zm-3.8-4.845v.979a2.27,2.27,0,0,1-.851,1.973,3.32,3.32,0,0,1-1.822.541,1.742,1.742,0,0,1-1.042-.318,1.213,1.213,0,0,1-.422-1.034,1.259,1.259,0,0,1,.692-1.185A4.7,4.7,0,0,1,35,11.832l.7-.119a5.665,5.665,0,0,0,.835-.2A4.387,4.387,0,0,0,37.057,11.267Z" transform="translate(-6.079 -1.045)"/>
      <path id="パス_207" data-name="パス 207" d="M51.185,5.13a4.179,4.179,0,0,0-2.49.756,4.546,4.546,0,0,0-.971,1.01V5.44a.054.054,0,0,0-.056-.056H44.726a.054.054,0,0,0-.056.056V20.993a.054.054,0,0,0,.056.056h3.039a.054.054,0,0,0,.056-.056V15.361a4.275,4.275,0,0,0,.907.939,4.039,4.039,0,0,0,2.379.676,4.718,4.718,0,0,0,3.659-1.567,6.563,6.563,0,0,0,1.424-4.535,5.856,5.856,0,0,0-1.456-4.28A4.827,4.827,0,0,0,51.185,5.13ZM52.9,11.017a4.144,4.144,0,0,1-.668,2.474,2.225,2.225,0,0,1-1.925.915,2.536,2.536,0,0,1-1.512-.453,3.091,3.091,0,0,1-1.074-2.689,5.512,5.512,0,0,1,.318-2A2.258,2.258,0,0,1,50.31,7.787a2.185,2.185,0,0,1,1.981.963A4.285,4.285,0,0,1,52.9,11.017Z" transform="translate(-9.133 -1.049)"/>
      <path id="パス_208" data-name="パス 208" d="M70.358,5.63a3.437,3.437,0,0,0-1.48-1.114A5.332,5.332,0,0,0,66.89,4.15a4.516,4.516,0,0,0-1.862.39,3.684,3.684,0,0,0-1.456,1.225V.626A.054.054,0,0,0,63.516.57H60.446a.054.054,0,0,0-.056.056V15.669a.054.054,0,0,0,.056.056h3.071a.054.054,0,0,0,.056-.056V9.623a3.4,3.4,0,0,1,.613-2.172,2.17,2.17,0,0,1,1.79-.756,1.6,1.6,0,0,1,1.535.748,2.842,2.842,0,0,1,.31,1.424v6.794a.054.054,0,0,0,.056.056H71.01a.054.054,0,0,0,.056-.056V9.106a15.08,15.08,0,0,0-.111-2.164A2.908,2.908,0,0,0,70.358,5.63Z" transform="translate(-12.347 -0.117)"/>
      <path id="パス_209" data-name="パス 209" d="M82.315,5.13a4.179,4.179,0,0,0-2.49.756,4.546,4.546,0,0,0-.971,1.01V5.44a.054.054,0,0,0-.056-.056H75.856a.054.054,0,0,0-.056.056V20.993a.054.054,0,0,0,.056.056h3.039a.061.061,0,0,0,.064-.056V15.361a4.275,4.275,0,0,0,.907.939,4.039,4.039,0,0,0,2.379.676A4.718,4.718,0,0,0,85.9,15.408a6.524,6.524,0,0,0,1.424-4.535,5.856,5.856,0,0,0-1.456-4.28A4.858,4.858,0,0,0,82.315,5.13Zm1.718,5.887a4.144,4.144,0,0,1-.668,2.474,2.225,2.225,0,0,1-1.925.915,2.537,2.537,0,0,1-1.512-.453,3.091,3.091,0,0,1-1.074-2.689,5.334,5.334,0,0,1,.326-2,2.258,2.258,0,0,1,2.267-1.472,2.185,2.185,0,0,1,1.981.963A4.353,4.353,0,0,1,84.034,11.017Z" transform="translate(-15.498 -1.049)"/>
      <path id="パス_210" data-name="パス 210" d="M102.056,16.112a1.014,1.014,0,0,1-.43-.318,1.513,1.513,0,0,1-.175-.748c-.016-.517-.024-.939-.024-1.289V8.642a2.833,2.833,0,0,0-1.535-2.8,7.934,7.934,0,0,0-3.469-.732c-2,0-3.421.5-4.248,1.5a4.269,4.269,0,0,0-.883,2.442.113.113,0,0,0,.016.048c.008.016.024.016.04.016h2.967a.053.053,0,0,0,.056-.048,2.042,2.042,0,0,1,.422-.994,1.979,1.979,0,0,1,1.519-.493,3.332,3.332,0,0,1,1.464.255.908.908,0,0,1,.477.891.824.824,0,0,1-.628.772,5.01,5.01,0,0,1-1.209.255l-1.05.119a7.988,7.988,0,0,0-2.737.724,3.217,3.217,0,0,0-1.718,3.031,3.063,3.063,0,0,0,1.066,2.5A4.107,4.107,0,0,0,94.665,17a4.7,4.7,0,0,0,2.283-.549,6.715,6.715,0,0,0,1.4-1.034c.024.207.048.39.072.557a3.285,3.285,0,0,0,.2.644.06.06,0,0,0,.056.04h3.341a.054.054,0,0,0,.056-.056v-.43A.038.038,0,0,0,102.056,16.112Zm-3.8-4.845v.979a2.27,2.27,0,0,1-.851,1.973,3.32,3.32,0,0,1-1.822.541,1.742,1.742,0,0,1-1.042-.318,1.213,1.213,0,0,1-.422-1.034,1.259,1.259,0,0,1,.692-1.185,4.7,4.7,0,0,1,1.392-.39l.7-.119a5.665,5.665,0,0,0,.835-.2A5.082,5.082,0,0,0,98.253,11.267Z" transform="translate(-18.587 -1.045)"/>
      <path id="パス_211" data-name="パス 211" d="M112.385,5.13a4.179,4.179,0,0,0-2.49.756,4.546,4.546,0,0,0-.971,1.01V5.44a.054.054,0,0,0-.056-.056h-2.944a.054.054,0,0,0-.056.056V20.993a.054.054,0,0,0,.056.056h3.039a.061.061,0,0,0,.064-.056V15.361a4.275,4.275,0,0,0,.907.939,4.039,4.039,0,0,0,2.379.676,4.718,4.718,0,0,0,3.659-1.567,6.563,6.563,0,0,0,1.424-4.535,5.856,5.856,0,0,0-1.456-4.28A4.858,4.858,0,0,0,112.385,5.13Zm1.718,5.887a4.144,4.144,0,0,1-.668,2.474,2.225,2.225,0,0,1-1.925.915A2.536,2.536,0,0,1,110,13.953a3.091,3.091,0,0,1-1.074-2.689,5.512,5.512,0,0,1,.318-2,2.258,2.258,0,0,1,2.267-1.472,2.185,2.185,0,0,1,1.981.963A4.285,4.285,0,0,1,114.1,11.017Z" transform="translate(-21.646 -1.049)"/>
      <path id="パス_212" data-name="パス 212" d="M131.726,7.266A4.852,4.852,0,0,0,129.673,5.6a7.09,7.09,0,0,0-2.784-.525,5.889,5.889,0,0,0-4.24,1.567,5.95,5.95,0,0,0-1.639,4.495,5.364,5.364,0,0,0,1.814,4.519A6.681,6.681,0,0,0,127,17.035a5.963,5.963,0,0,0,4.463-1.647,3.623,3.623,0,0,0,1.154-2.052.058.058,0,0,0-.016-.048.048.048,0,0,0-.048-.024h-3.134a.044.044,0,0,0-.048.032,2.362,2.362,0,0,1-.621.748,2.628,2.628,0,0,1-1.671.5,3.145,3.145,0,0,1-1.663-.414,2.57,2.57,0,0,1-1.193-2.243h8.5a.054.054,0,0,0,.056-.056,13.1,13.1,0,0,0-.1-2.228A5.408,5.408,0,0,0,131.726,7.266ZM124.3,9.843a2.924,2.924,0,0,1,.788-1.623,2.461,2.461,0,0,1,1.79-.621,2.732,2.732,0,0,1,1.782.589,2.336,2.336,0,0,1,.8,1.655Z" transform="translate(-24.741 -1.037)"/>
      <path id="パス_213" data-name="パス 213" d="M143.331,5.124c-.135-.008-.35-.024-.414-.024a3.562,3.562,0,0,0-2.275.7A5.919,5.919,0,0,0,139.5,7.168V5.434a.054.054,0,0,0-.056-.056h-2.936a.054.054,0,0,0-.056.056V16.6a.054.054,0,0,0,.056.056H139.6a.054.054,0,0,0,.056-.056V11.257a4.229,4.229,0,0,1,.35-1.957,2.549,2.549,0,0,1,2.434-1.114c.1,0,.215,0,.366.008s.326.024.517.04a.058.058,0,0,0,.048-.016.048.048,0,0,0,.024-.048V5.188C143.4,5.156,143.363,5.132,143.331,5.124Z" transform="translate(-27.898 -1.043)"/>
    </g>
    <g id="グループ_122" data-name="グループ 122" transform="translate(120.238 0.414)">
      <path id="パス_214" data-name="パス 214" d="M186.808,16.11a1.084,1.084,0,0,1-.43-.318,1.513,1.513,0,0,1-.175-.748c-.016-.5-.024-.939-.024-1.289V8.632a2.833,2.833,0,0,0-1.535-2.8,7.934,7.934,0,0,0-3.469-.732c-2,0-3.421.5-4.248,1.5a4.269,4.269,0,0,0-.883,2.442.113.113,0,0,0,.016.048c.008.016.024.016.04.016h2.967a.053.053,0,0,0,.056-.048,2.042,2.042,0,0,1,.422-.994,1.979,1.979,0,0,1,1.52-.493,3.332,3.332,0,0,1,1.464.255.908.908,0,0,1,.477.891.824.824,0,0,1-.628.772,5.01,5.01,0,0,1-1.209.255l-1.05.119a7.989,7.989,0,0,0-2.737.724,3.21,3.21,0,0,0-1.71,3.031,3.073,3.073,0,0,0,1.066,2.5,4.107,4.107,0,0,0,2.689.875,4.7,4.7,0,0,0,2.283-.549,6.716,6.716,0,0,0,1.4-1.034c.024.207.048.39.072.557a3.286,3.286,0,0,0,.2.644.06.06,0,0,0,.056.04h3.341a.054.054,0,0,0,.056-.056v-.43C186.839,16.142,186.824,16.118,186.808,16.11ZM183,11.265v.979a2.27,2.27,0,0,1-.851,1.973,3.32,3.32,0,0,1-1.822.541,1.743,1.743,0,0,1-1.042-.318,1.213,1.213,0,0,1-.422-1.034,1.259,1.259,0,0,1,.692-1.185,4.7,4.7,0,0,1,1.392-.39l.7-.119a5.666,5.666,0,0,0,.835-.2C182.655,11.44,182.83,11.361,183,11.265Z" transform="translate(-156.155 -1.456)"/>
      <path id="パス_215" data-name="パス 215" d="M162.532.52H151.2a.054.054,0,0,0-.056.056V15.659a.054.054,0,0,0,.056.056h3.3a.054.054,0,0,0,.056-.056V9.382h6.985a.054.054,0,0,0,.056-.056V6.7a.054.054,0,0,0-.056-.056h-6.985V3.288h7.979a.054.054,0,0,0,.056-.056V.576A.054.054,0,0,0,162.532.52Z" transform="translate(-151.14 -0.52)"/>
      <path id="パス_216" data-name="パス 216" d="M173.179,5.124c-.135-.008-.358-.024-.414-.024a3.562,3.562,0,0,0-2.275.7,5.914,5.914,0,0,0-1.154,1.384V5.426a.054.054,0,0,0-.056-.056h-2.936a.054.054,0,0,0-.056.056V16.6a.054.054,0,0,0,.056.056h3.095a.054.054,0,0,0,.056-.056V11.257a4.267,4.267,0,0,1,.35-1.965,2.558,2.558,0,0,1,2.442-1.122c.1,0,.215,0,.366.008s.326.024.517.04h.008c.016,0,.024-.008.04-.016a.061.061,0,0,0,.016-.04V5.18A.054.054,0,0,0,173.179,5.124Zm-.374.04h0ZM166.346,16.6V5.426h0V16.6ZM169.8,9.269a1.173,1.173,0,0,0-.08.175c.024-.064.056-.119.08-.175a3.145,3.145,0,0,1,.175-.27A3.144,3.144,0,0,0,169.8,9.269Zm2.5-1.146Zm.366.008a.525.525,0,0,1-.111-.008.489.489,0,0,0,.111.008c.072,0,.159.008.247.016C172.813,8.139,172.734,8.139,172.662,8.131Zm.35-2.959c.048,0,.1.008.167.008C173.108,5.18,173.052,5.172,173.012,5.172Z" transform="translate(-154.238 -1.456)"/>
      <path id="パス_217" data-name="パス 217" d="M207.079,6.443a3.423,3.423,0,0,0-1.392-1.018,4.4,4.4,0,0,0-1.551-.294A4.854,4.854,0,0,0,202,5.6a3.831,3.831,0,0,0-1.464,1.376,3.309,3.309,0,0,0-.986-1.265,4.518,4.518,0,0,0-4.566.1,4.442,4.442,0,0,0-.986,1.1V5.456a.054.054,0,0,0-.056-.056h-2.991a.054.054,0,0,0-.056.056V16.61a.054.054,0,0,0,.056.056h3.118a.054.054,0,0,0,.056-.056V9.879a2.943,2.943,0,0,1,.239-1.344,1.8,1.8,0,0,1,1.718-.78,1.46,1.46,0,0,1,1.472.78,3.5,3.5,0,0,1,.207,1.424V16.61a.054.054,0,0,0,.056.056h3.095a.054.054,0,0,0,.056-.056V9.959A3,3,0,0,1,201.2,8.7a1.718,1.718,0,0,1,1.71-.971,1.516,1.516,0,0,1,1.464.748,2.227,2.227,0,0,1,.207,1.018V16.61a.054.054,0,0,0,.056.056h3.15a.054.054,0,0,0,.056-.056l.024-7.041a9.611,9.611,0,0,0-.111-1.663A3.156,3.156,0,0,0,207.079,6.443Zm.446.867a2.465,2.465,0,0,0-.167-.358A3.613,3.613,0,0,1,207.525,7.31Zm-1.862-1.838c-.127-.048-.255-.088-.382-.127C205.409,5.385,205.536,5.424,205.663,5.472Zm-.756-.215a4.157,4.157,0,0,0-.772-.072A4.286,4.286,0,0,1,204.907,5.257Zm-2.888.39a3.3,3.3,0,0,0-.819.589A3.3,3.3,0,0,1,202.02,5.647Zm-1.806.875a3.261,3.261,0,0,1,.3.573h0a3.261,3.261,0,0,0-.3-.573,2.64,2.64,0,0,0-.255-.334A2.64,2.64,0,0,1,200.214,6.522Zm-1.408-1.114a4.19,4.19,0,0,0-1.154-.215A4.19,4.19,0,0,1,198.806,5.408Zm-4.192.78a2.484,2.484,0,0,1,.263-.247c-.08.072-.167.159-.263.247a5.216,5.216,0,0,0-.406.485C194.351,6.49,194.486,6.331,194.613,6.188Zm.151,1.83a1.518,1.518,0,0,1,.446-.2,2.834,2.834,0,0,1,.867-.111h0a3.144,3.144,0,0,0-.867.111A1.337,1.337,0,0,0,194.764,8.018Zm9.658.43a1.322,1.322,0,0,0-.581-.581,1.283,1.283,0,0,1,.581.581,1.874,1.874,0,0,1,.1.223A.94.94,0,0,0,204.422,8.447Zm3.389,1.114-.024,7.041.024-7.041q0-.549-.024-.955Q207.811,9.024,207.811,9.561Z" transform="translate(-159.267 -1.463)"/>
      <path id="パス_218" data-name="パス 218" d="M244.3,5.208H241.1a.06.06,0,0,0-.056.04l-1.782,7.8-1.734-7.8a.068.068,0,0,0-.056-.048h-3.119a.058.058,0,0,0-.056.048l-1.631,7.764-1.774-7.764a.06.06,0,0,0-.056-.04h-3.3a.069.069,0,0,0-.048.024.053.053,0,0,0-.008.048l3.3,11.169a.06.06,0,0,0,.056.04h3.19a.06.06,0,0,0,.056-.04l1.814-7.9,1.79,7.9a.06.06,0,0,0,.056.04H240.9a.06.06,0,0,0,.056-.04l3.4-11.169c0-.008.008-.016.008-.024A.069.069,0,0,0,244.3,5.208Zm-8.417,3.087-.931,4.065.931-4.065Zm1.591-3.031h0l1.79,8.043Z" transform="translate(-166.747 -1.477)"/>
      <path id="パス_219" data-name="パス 219" d="M254.62,4.99a5.671,5.671,0,0,0-4.566,1.79A6.4,6.4,0,0,0,248.55,11a6.355,6.355,0,0,0,1.5,4.24,6.786,6.786,0,0,0,9.133,0,6.355,6.355,0,0,0,1.5-4.24,6.4,6.4,0,0,0-1.5-4.224A5.671,5.671,0,0,0,254.62,4.99Zm-.008,9.459a2.484,2.484,0,0,1-2.037-.891A4.015,4.015,0,0,1,251.86,11a3.976,3.976,0,0,1,.716-2.546,2.781,2.781,0,0,1,4.065,0A4.024,4.024,0,0,1,257.349,11a4.065,4.065,0,0,1-.708,2.554A2.458,2.458,0,0,1,254.612,14.449Zm2.068-.851a2.172,2.172,0,0,0,.167-.239,2.94,2.94,0,0,0,.27-.549,2.94,2.94,0,0,1-.27.549,2.169,2.169,0,0,1-.167.239c-.064.08-.127.143-.191.215A2.309,2.309,0,0,0,256.68,13.6Zm.175-4.94-.167-.239L256.5,8.2a2.593,2.593,0,0,1,.191.215l.167.239a2.938,2.938,0,0,1,.27.549A3.524,3.524,0,0,0,256.855,8.657Zm-2.57-1.13a2.738,2.738,0,0,0-.6.111,2.306,2.306,0,0,0-1.154.78A4.035,4.035,0,0,0,251.8,11a4.035,4.035,0,0,0,.732,2.586,2.273,2.273,0,0,0,1.154.78,2.738,2.738,0,0,0,.6.111c.1.008.215.016.326.016h0c-.111,0-.223-.008-.326-.016a2.738,2.738,0,0,1-.6-.111,2.358,2.358,0,0,1-1.154-.78A4.051,4.051,0,0,1,251.8,11a4.035,4.035,0,0,1,.732-2.586,2.323,2.323,0,0,1,1.154-.78,3.312,3.312,0,0,1,.6-.111c.1-.008.215-.016.326-.016h0C254.5,7.512,254.389,7.52,254.286,7.528Zm.334-2.482h0a6.221,6.221,0,0,0-3.675.994A6.255,6.255,0,0,1,254.62,5.046Zm-3.675,10.931a6.312,6.312,0,0,0,3.675.979h0A6.312,6.312,0,0,1,250.945,15.976Zm8.377-.986a5.118,5.118,0,0,0,.469-.7A5.657,5.657,0,0,1,259.322,14.99ZM260.634,11a6.522,6.522,0,0,1-.581,2.792A6.642,6.642,0,0,0,260.634,11a6.464,6.464,0,0,0-.581-2.768A6.637,6.637,0,0,1,260.634,11Zm-.843-3.262a6.715,6.715,0,0,0-.469-.7A5.658,5.658,0,0,1,259.791,7.743Z" transform="translate(-171.056 -1.434)"/>
      <path id="パス_220" data-name="パス 220" d="M271.319,5.126c-.048,0-.111-.008-.167-.008-.1-.008-.207-.008-.247-.008a3.562,3.562,0,0,0-2.275.7,5.913,5.913,0,0,0-1.154,1.384V5.428a.054.054,0,0,0-.056-.056h-2.935a.054.054,0,0,0-.056.056V16.6a.054.054,0,0,0,.056.056h3.095a.054.054,0,0,0,.056-.056V11.26a4.267,4.267,0,0,1,.35-1.965,2.558,2.558,0,0,1,2.442-1.122c.1,0,.215,0,.366.008s.326.024.517.04h.008c.016,0,.024-.008.04-.016a.061.061,0,0,0,.016-.04V5.182A.054.054,0,0,0,271.319,5.126Zm-.414.04h0a4.592,4.592,0,0,0-.963.1A4.592,4.592,0,0,1,270.906,5.166Zm-2.243.684a4.26,4.26,0,0,0-.732.788A4.015,4.015,0,0,1,268.662,5.85Zm-1.241-.422V7.377h0V5.428Zm3.9,2.745h0V5.182h-.056c-.056,0-.119-.008-.183-.008-.04,0-.08-.008-.1-.008a.49.49,0,0,1,.1.008c.056,0,.119.008.183.008h.056Z" transform="translate(-174.303 -1.458)"/>
      <path id="パス_221" data-name="パス 221" d="M284.774,15.643l-4.352-6.921L284.6,4.593a.061.061,0,0,0,.016-.04.054.054,0,0,0-.056-.056h-3.827a.061.061,0,0,0-.04.016l-3.779,4.1v-8a.054.054,0,0,0-.056-.056h-3.023a.054.054,0,0,0-.056.056v15.06a.054.054,0,0,0,.056.056h3.023a.054.054,0,0,0,.056-.056V12.183l1.209-1.193,2.816,4.71a.057.057,0,0,0,.048.024h3.739a.044.044,0,0,0,.048-.032A.051.051,0,0,0,284.774,15.643Zm-10.931.024V.616h0V15.667Zm3.015-3.516,1.273-1.257h0Z" transform="translate(-176.215 -0.528)"/>
      <path id="パス_222" data-name="パス 222" d="M223.586,7.266A4.851,4.851,0,0,0,221.533,5.6a7.09,7.09,0,0,0-2.784-.525,5.889,5.889,0,0,0-4.24,1.567,5.95,5.95,0,0,0-1.639,4.495,5.364,5.364,0,0,0,1.814,4.519,6.681,6.681,0,0,0,4.177,1.384,5.963,5.963,0,0,0,4.463-1.647,3.623,3.623,0,0,0,1.154-2.052.058.058,0,0,0-.016-.048.048.048,0,0,0-.048-.024h-3.134a.044.044,0,0,0-.048.032,2.362,2.362,0,0,1-.62.748,2.628,2.628,0,0,1-1.671.5,3.145,3.145,0,0,1-1.663-.414,2.57,2.57,0,0,1-1.193-2.243h8.5a.054.054,0,0,0,.056-.056,13.1,13.1,0,0,0-.1-2.228A5.508,5.508,0,0,0,223.586,7.266Zm-7.43,2.578a2.924,2.924,0,0,1,.788-1.623,2.461,2.461,0,0,1,1.79-.621,2.732,2.732,0,0,1,1.782.589,2.336,2.336,0,0,1,.8,1.655Z" transform="translate(-163.761 -1.45)"/>
    </g>
  </g>
  <path id="パス_223" data-name="パス 223" d="M296.036,7.974A3.671,3.671,0,0,1,293.4,9.032a3.709,3.709,0,0,1-3.763-3.747,3.579,3.579,0,0,1,1.169-2.737,3.7,3.7,0,0,1,2.586-1.018,3.628,3.628,0,0,1,2.657,1.1,3.592,3.592,0,0,1,1.106,2.657,3.58,3.58,0,0,1-1.122,2.689m-4.845-4.861a3.013,3.013,0,0,0-.9,2.172A3.026,3.026,0,0,0,291.2,7.5a3.1,3.1,0,0,0,4.391-.008,3.034,3.034,0,0,0,.907-2.2,2.976,2.976,0,0,0-.907-2.172,3.047,3.047,0,0,0-4.4,0m.557,4.256V3.209h1.169c.517,0,.8.008.859.008a1.961,1.961,0,0,1,.819.215,1.05,1.05,0,0,1,.557.994.914.914,0,0,1-.294.756,1.4,1.4,0,0,1-.716.278,1.411,1.411,0,0,1,.589.239,1.123,1.123,0,0,1,.366.931V7c0,.04.008.08.008.119a.662.662,0,0,0,.032.119l.032.119h-1.034a3.675,3.675,0,0,1-.072-.581,2.139,2.139,0,0,0-.072-.509.516.516,0,0,0-.3-.3,1.279,1.279,0,0,0-.374-.064l-.239-.016h-.223V7.361h-1.106Zm2-3.333a1.941,1.941,0,0,0-.636-.088h-.263V5.158h.422a1.047,1.047,0,0,0,.6-.151.591.591,0,0,0,.215-.493.471.471,0,0,0-.334-.477" transform="translate(-59.219 -0.313)"/>
</svg>
